<svg width="80" height="80" viewBox="0 0 80 80" fill="none" xmlns="http://www.w3.org/2000/svg">
<circle cx="40" cy="40" r="40" fill="#74D285"/>
<path d="M23.7606 43.4818H22.9766L22.3326 45.8338H19.1826C19.1546 44.3778 19.1546 42.8938 19.1546 41.3398V41.2978H21.0726L21.2686 42.7818H21.9686V39.2398H21.2686L21.0586 40.7938H19.1546C19.1546 39.3098 19.1546 37.8678 19.1826 36.4678H22.0246L22.6686 38.7078H23.4806L23.4946 35.9218H15.4866V36.3978L16.7466 36.5098C16.7886 37.9518 16.7886 39.3938 16.7886 40.8498V41.4658C16.7886 42.9218 16.7886 44.3638 16.7466 45.7778L15.4866 45.9038V46.3798H23.7886L23.7606 43.4818ZM35.4342 35.9218H31.5702V36.3978L33.4322 36.5938L33.5022 43.2578L28.1962 35.9218H24.8222V36.3978L25.8162 36.5098L26.0822 36.9018L25.9982 45.7078L24.7102 45.9038V46.3798H28.6022V45.9038L26.7262 45.6938L26.6422 37.6998L32.8162 46.4078H34.0482L34.1462 36.5798L35.4342 36.3978V35.9218ZM44.0469 36.4678L44.7609 38.9178H45.5729L45.5169 35.9218H36.2769L36.2209 38.9178H37.0469L37.7469 36.4678H39.6789C39.7069 37.9098 39.7069 39.3798 39.7069 40.8498V41.4658C39.7069 42.9218 39.7069 44.3638 39.6789 45.7638L38.2649 45.9038V46.3798H43.5289V45.9038L42.1009 45.7638C42.0729 44.3358 42.0729 42.8798 42.0729 41.4518V40.8498C42.0729 39.3658 42.0729 37.9098 42.1009 36.4678H44.0469ZM54.7411 43.4818H53.9571L53.3131 45.8338H50.1631C50.1351 44.3778 50.1351 42.8938 50.1351 41.3398V41.2978H52.0531L52.2491 42.7818H52.9491V39.2398H52.2491L52.0391 40.7938H50.1351C50.1351 39.3098 50.1351 37.8678 50.1631 36.4678H53.0051L53.6491 38.7078H54.4611L54.4751 35.9218H46.4671V36.3978L47.7271 36.5098C47.7691 37.9518 47.7691 39.3938 47.7691 40.8498V41.4658C47.7691 42.9218 47.7691 44.3638 47.7271 45.7778L46.4671 45.9038V46.3798H54.7691L54.7411 43.4818ZM59.5126 40.9198C59.5126 39.3098 59.5126 37.8678 59.5546 36.4538H60.3526C61.7666 36.4538 62.5086 37.2098 62.5086 38.5958C62.5086 39.8698 61.9066 40.9198 60.3386 40.9198H59.5126ZM64.7766 45.8338L64.3146 43.5238C64.0766 42.1378 63.6006 41.3678 61.7666 41.1158C63.9646 40.7798 64.7486 39.7018 64.7486 38.5538C64.7486 36.8878 63.4046 35.9218 60.9406 35.9218H55.9006V36.3978L57.1606 36.5098C57.2026 37.9518 57.2026 39.3938 57.2026 40.8498V41.4658C57.2026 42.9218 57.2026 44.3638 57.1606 45.7778L55.9006 45.9038V46.3798H60.8426V45.9038L59.5546 45.7778C59.5126 44.3498 59.5126 42.9078 59.5126 41.4378H60.1986C61.2766 41.4378 61.6126 41.9978 61.8086 43.1458L62.2146 45.0778C62.3546 46.2118 63.0686 46.5898 64.3566 46.5898C65.0566 46.5898 65.4486 46.5198 66.0226 46.3798V45.9038L64.7766 45.8338Z" fill="white"/>
</svg>
