<svg width="484" height="325" viewBox="0 0 484 325" fill="none" xmlns="http://www.w3.org/2000/svg">
<path d="M140.64 72.96V26.96L116.48 88.4H114.4L91.12 28.96V72.96C91.12 77.1733 91.2267 80.2933 91.44 82.32L98.88 83.28C99.2 84.24 99.2 85.2 98.88 86.16C94.2933 86.0533 91.04 86 89.12 86C85.92 86 82.6933 86.08 79.44 86.24C79.2267 85.0667 79.2267 84.08 79.44 83.28L86.72 82.48V35.36C86.72 31.1467 86.6133 28.0267 86.4 26L79.76 25.04C79.44 24.1333 79.44 23.2267 79.76 22.32H97.36L117.44 74.96L138 22.32C139.227 22.3733 141.093 22.4 143.6 22.4C144.133 22.4 148.32 22.32 156.16 22.16C156.48 23.12 156.48 24.08 156.16 25.04L149.52 26C149.307 28.0267 149.2 31.1467 149.2 35.36V82.48L155.68 83.28C155.893 84.08 155.893 85.0667 155.68 86.24C152.32 86.08 148.667 86 144.72 86C141.84 86 138.16 86.0533 133.68 86.16C133.36 84.8267 133.36 83.8667 133.68 83.28L140.32 82.32C140.533 80.2933 140.64 77.1733 140.64 72.96ZM170.624 73.04V25.84L164.144 24.96C163.824 24 163.824 23.04 164.144 22.08L175.104 22.32H207.424L207.504 40.88C206.331 41.0933 205.344 41.0933 204.544 40.88L200.784 26.4H179.184V50.4L191.984 50.16L193.824 42.32C194.624 42.1067 195.611 42.1067 196.784 42.32C196.571 45.3067 196.464 48.7467 196.464 52.64C196.464 56.2133 196.544 59.68 196.704 63.04C195.744 63.36 194.784 63.36 193.824 63.04L192.064 54.72L179.184 54.48V81.92H203.184L206.944 67.44C207.744 67.2267 208.731 67.2267 209.904 67.44L209.824 86H175.104L163.664 86.24C163.344 85.28 163.344 84.32 163.664 83.36L170.304 82.48C170.518 79.76 170.624 76.6133 170.624 73.04ZM217.961 86.16C217.641 85.2 217.641 84.24 217.961 83.28L224.601 82.32C224.815 80.2933 224.921 77.1733 224.921 72.96V25.84L218.441 25.04C218.228 24.24 218.228 23.2533 218.441 22.08C219.241 22.1333 220.495 22.16 222.201 22.16C225.615 22.16 230.015 22.0267 235.401 21.76C240.841 21.44 243.961 21.28 244.761 21.28C255.215 21.28 263.135 24.1067 268.521 29.76C273.908 35.4133 276.601 43.0133 276.601 52.56C276.601 62.2667 274.068 70.32 269.001 76.72C263.935 83.12 256.841 86.32 247.721 86.32C244.681 86.32 240.655 86.2667 235.641 86.16C230.628 86.1067 227.028 86.08 224.841 86.08C221.748 86.08 219.455 86.1067 217.961 86.16ZM244.681 82.48C259.721 82.48 267.241 72.6667 267.241 53.04C267.241 44.56 265.268 37.8667 261.321 32.96C257.428 28.0533 251.801 25.44 244.441 25.12C243.801 25.0667 242.815 25.04 241.481 25.04C238.655 25.04 236.095 25.2533 233.801 25.68C233.588 27.7067 233.481 30.9333 233.481 35.36V82.24C234.121 82.24 235.641 82.2933 238.041 82.4C240.495 82.4533 242.708 82.48 244.681 82.48ZM299.497 35.36V82.48L305.977 83.28C306.19 84.08 306.19 85.0667 305.977 86.24C302.617 86.08 298.964 86 295.017 86C292.137 86 288.457 86.0533 283.977 86.16C283.657 85.2 283.657 84.24 283.977 83.28L290.617 82.32C290.83 80.2933 290.937 77.1733 290.937 72.96V25.84L284.457 25.04C284.244 24.24 284.244 23.2533 284.457 22.08C287.39 22.2933 291.044 22.4 295.417 22.4C299.31 22.4 302.99 22.32 306.457 22.16C306.777 23.12 306.777 24.08 306.457 25.04L299.817 26C299.604 28.0267 299.497 31.1467 299.497 35.36ZM365.118 74.16C366.024 74.7467 366.718 75.76 367.198 77.2C359.784 84.1333 352.264 87.6 344.638 87.6C339.411 87.6 334.851 86.6667 330.958 84.8C327.064 82.88 323.838 80.3733 321.278 77.28C318.718 74.1333 316.798 70.5867 315.518 66.64C314.291 62.64 313.678 58.56 313.678 54.4C313.678 50.1867 314.398 46.08 315.838 42.08C317.278 38.0267 319.384 34.4267 322.158 31.28C324.931 28.08 328.344 25.52 332.398 23.6C336.504 21.68 341.171 20.72 346.398 20.72C353.278 20.72 359.678 22.32 365.598 25.52V40.88C364.638 41.04 363.784 41.12 363.038 41.12C362.238 41.12 361.571 41.04 361.038 40.88L358.478 27.52C355.224 25.3867 350.878 24.32 345.438 24.32C342.078 24.32 339.038 25.0933 336.318 26.64C333.651 28.1333 331.358 30.1867 329.438 32.8C327.571 35.36 326.131 38.4 325.118 41.92C324.104 45.3867 323.598 49.0933 323.598 53.04C323.598 57.2533 324.078 61.1467 325.038 64.72C326.051 68.2933 327.464 71.3867 329.278 74C331.091 76.6133 333.278 78.6667 335.838 80.16C338.451 81.6 341.358 82.32 344.558 82.32C348.398 82.32 352.104 81.5733 355.678 80.08C359.251 78.5867 362.398 76.6133 365.118 74.16ZM380.057 82.48L386.537 83.28C386.75 84.08 386.75 85.0667 386.537 86.24C383.177 86.08 380.35 86 378.057 86C376.777 86 373.897 86.0533 369.417 86.16C369.097 85.2 369.097 84.24 369.417 83.28L374.697 82.32C375.55 81.04 376.617 78.6667 377.897 75.2L398.537 20H401.337L424.537 82.48L431.017 83.28C431.23 84.08 431.23 85.0667 431.017 86.24C427.657 86.08 423.897 86 419.737 86C416.644 86 412.857 86.0533 408.377 86.16C408.057 85.2 408.057 84.24 408.377 83.28L415.017 82.32L407.977 62.56H387.177L380.057 82.48ZM397.817 32.08H397.737C397.097 34.5867 396.057 37.8667 394.617 41.92L388.617 58.56H406.537L400.697 41.92C399.577 38.6667 398.617 35.3867 397.817 32.08ZM444.636 86L433.196 86.24C432.876 85.28 432.876 84.32 433.196 83.36L439.836 82.48C440.049 79.76 440.156 76.6133 440.156 73.04V25.84L433.676 25.04C433.462 24.24 433.462 23.2533 433.676 22.08C436.609 22.2933 440.262 22.4 444.636 22.4C448.529 22.4 452.209 22.32 455.676 22.16C455.996 23.12 455.996 24.08 455.676 25.04L449.036 26C448.822 28.0267 448.716 31.1467 448.716 35.36V81.92H475.116L478.876 67.44C479.676 67.2267 480.662 67.2267 481.836 67.44L481.756 86H444.636Z" fill="#BFD1EC"/>
<path d="M403.76 189.48L410.24 190.28C410.453 191.08 410.453 192.067 410.24 193.24C406.88 193.08 404.053 193 401.76 193C400.48 193 397.6 193.053 393.12 193.16C392.8 192.2 392.8 191.24 393.12 190.28L398.4 189.32C399.253 188.04 400.32 185.667 401.6 182.2L422.24 127H425.04L448.24 189.48L454.72 190.28C454.933 191.08 454.933 192.067 454.72 193.24C451.36 193.08 447.6 193 443.44 193C440.347 193 436.56 193.053 432.08 193.16C431.76 192.2 431.76 191.24 432.08 190.28L438.72 189.32L431.68 169.56H410.88L403.76 189.48ZM421.52 139.08H421.44C420.8 141.587 419.76 144.867 418.32 148.92L412.32 165.56H430.24L424.4 148.92C423.28 145.667 422.32 142.387 421.52 139.08ZM472.419 142.36V189.48L478.899 190.28C479.112 191.08 479.112 192.067 478.899 193.24C475.539 193.08 471.885 193 467.939 193C465.059 193 461.379 193.053 456.899 193.16C456.579 192.2 456.579 191.24 456.899 190.28L463.539 189.32C463.752 187.293 463.859 184.173 463.859 179.96V132.84L457.379 132.04C457.165 131.24 457.165 130.253 457.379 129.08C460.312 129.293 463.965 129.4 468.339 129.4C472.232 129.4 475.912 129.32 479.379 129.16C479.699 130.12 479.699 131.08 479.379 132.04L472.739 133C472.525 135.027 472.419 138.147 472.419 142.36Z" fill="#BFD1EC"/>
<path d="M4.16 238.08C6.34667 238.08 9.81333 237.973 14.56 237.76C19.36 237.547 23.7067 237.44 27.6 237.44C35.8667 237.44 41.76 239.067 45.28 242.32C48.8 245.52 50.56 250 50.56 255.76C50.56 260.88 48.2667 265.173 43.68 268.64C39.1467 272.107 33.7333 273.84 27.44 273.84C24.1867 273.84 21.44 273.68 19.2 273.36V298.48L26.48 299.28C26.6933 300.08 26.6933 301.067 26.48 302.24C23.12 302.08 19.3333 302 15.12 302C11.9733 302 8.16 302.053 3.68 302.16C3.36 301.2 3.36 300.24 3.68 299.28L10.32 298.32C10.5333 296.293 10.64 293.173 10.64 288.96V241.84L4.16 241.04C3.94667 240.24 3.94667 239.253 4.16 238.08ZM19.2 251.36V270.08C20.8533 270.293 23.2533 270.4 26.4 270.4C29.1733 270.4 31.5467 269.947 33.52 269.04C35.5467 268.08 37.0667 266.827 38.08 265.28C39.0933 263.68 39.8133 262.08 40.24 260.48C40.6667 258.88 40.88 257.173 40.88 255.36C40.88 250.72 39.7067 247.147 37.36 244.64C35.0133 242.08 31.0933 240.8 25.6 240.8C23.6267 240.8 21.6533 240.987 19.68 241.36C19.36 244.4 19.2 247.733 19.2 251.36ZM67.62 302L56.18 302.24C55.86 301.28 55.86 300.32 56.18 299.36L62.82 298.48C63.0333 295.76 63.14 292.613 63.14 289.04V241.84L56.66 241.04C56.4467 240.24 56.4467 239.253 56.66 238.08C59.5933 238.293 63.2467 238.4 67.62 238.4C71.5133 238.4 75.1933 238.32 78.66 238.16C78.98 239.12 78.98 240.08 78.66 241.04L72.02 242C71.8067 244.027 71.7 247.147 71.7 251.36V297.92H98.1L101.86 283.44C102.66 283.227 103.647 283.227 104.82 283.44L104.74 302H67.62ZM116.557 298.48L123.037 299.28C123.25 300.08 123.25 301.067 123.037 302.24C119.677 302.08 116.85 302 114.557 302C113.277 302 110.397 302.053 105.917 302.16C105.597 301.2 105.597 300.24 105.917 299.28L111.197 298.32C112.05 297.04 113.117 294.667 114.397 291.2L135.037 236H137.837L161.037 298.48L167.517 299.28C167.73 300.08 167.73 301.067 167.517 302.24C164.157 302.08 160.397 302 156.237 302C153.144 302 149.357 302.053 144.877 302.16C144.557 301.2 144.557 300.24 144.877 299.28L151.517 298.32L144.477 278.56H123.677L116.557 298.48ZM134.317 248.08H134.237C133.597 250.587 132.557 253.867 131.117 257.92L125.117 274.56H143.037L137.197 257.92C136.077 254.667 135.117 251.387 134.317 248.08ZM163.41 238.32H218.69L218.77 256.88C217.597 257.093 216.61 257.093 215.81 256.88L212.05 242.4H195.41V298.48L203.49 299.28C203.703 300.08 203.703 301.067 203.49 302.24C200.13 302.08 196.077 302 191.33 302C187.65 302 183.57 302.053 179.09 302.16C178.77 301.2 178.77 300.24 179.09 299.28L186.53 298.32C186.743 296.293 186.85 293.173 186.85 288.96V242.4H170.05L166.29 256.88C165.49 257.093 164.503 257.093 163.33 256.88L163.41 238.32ZM231.578 288.96V241.84L225.098 240.96C224.778 240 224.778 239.04 225.098 238.08L236.058 238.32H268.378L268.458 256.88C267.284 257.093 266.298 257.093 265.498 256.88L261.738 242.4H240.138V266L252.938 265.76L254.778 257.92C255.578 257.707 256.564 257.707 257.738 257.92C257.524 260.907 257.418 264.347 257.418 268.24C257.418 271.813 257.498 275.28 257.658 278.64C256.698 278.96 255.738 278.96 254.778 278.64L253.018 270.32L240.138 270.08V298.48L247.418 299.28C247.631 300.08 247.631 301.067 247.418 302.24C244.058 302.08 240.271 302 236.058 302C232.911 302 229.098 302.053 224.618 302.16C224.298 301.2 224.298 300.24 224.618 299.28L231.258 298.32C231.471 296.293 231.578 293.173 231.578 288.96ZM306.863 236.72C312.09 236.72 316.783 237.653 320.943 239.52C325.103 241.387 328.463 243.893 331.023 247.04C333.583 250.133 335.53 253.6 336.863 257.44C338.25 261.227 338.943 265.2 338.943 269.36C338.943 278.96 335.93 287.067 329.903 293.68C323.876 300.293 316.196 303.6 306.863 303.6C301.69 303.6 297.023 302.667 292.863 300.8C288.703 298.933 285.343 296.453 282.783 293.36C280.223 290.213 278.25 286.747 276.863 282.96C275.53 279.173 274.863 275.227 274.863 271.12C274.863 264.987 276.196 259.307 278.863 254.08C281.583 248.853 285.396 244.667 290.303 241.52C295.263 238.32 300.783 236.72 306.863 236.72ZM306.783 299.2C311.796 299.2 316.036 297.76 319.503 294.88C323.023 291.947 325.53 288.267 327.023 283.84C328.57 279.413 329.343 274.48 329.343 269.04C329.343 263.867 328.57 259.253 327.023 255.2C325.53 251.093 323.05 247.733 319.583 245.12C316.116 242.453 311.85 241.12 306.783 241.12C299.476 241.12 293.93 243.787 290.143 249.12C286.356 254.453 284.463 261.12 284.463 269.12C284.463 274.613 285.21 279.573 286.703 284C288.196 288.373 290.676 292 294.143 294.88C297.61 297.76 301.823 299.2 306.783 299.2ZM346.582 238.08C348.769 238.08 352.235 237.973 356.982 237.76C361.782 237.547 366.129 237.44 370.022 237.44C378.129 237.44 383.915 239.067 387.382 242.32C390.849 245.52 392.582 250 392.582 255.76C392.582 259.227 391.382 262.347 388.982 265.12C386.582 267.893 383.435 269.973 379.542 271.36C381.835 275.253 383.969 278.907 385.942 282.32C387.969 285.733 389.435 288.267 390.342 289.92C391.249 291.573 392.075 293.067 392.822 294.4C393.569 295.68 394.102 296.56 394.422 297.04C394.795 297.52 395.142 297.92 395.462 298.24L401.222 299.04C401.435 299.84 401.435 300.827 401.222 302H387.622L375.542 280.08C373.942 277.04 372.422 274.693 370.982 273.04H369.862C367.142 273.04 364.395 272.88 361.622 272.56V298.48L368.902 299.28C369.115 300.08 369.115 301.067 368.902 302.24C365.542 302.08 361.755 302 357.542 302C354.395 302 350.582 302.053 346.102 302.16C345.782 301.2 345.782 300.24 346.102 299.28L352.742 298.32C352.955 296.293 353.062 293.173 353.062 288.96V241.84L346.582 241.04C346.369 240.24 346.369 239.253 346.582 238.08ZM361.622 251.36V269.28C363.275 269.493 365.675 269.6 368.822 269.6C371.542 269.6 373.862 269.173 375.782 268.32C377.755 267.413 379.222 266.24 380.182 264.8C381.142 263.307 381.835 261.787 382.262 260.24C382.689 258.693 382.902 257.067 382.902 255.36C382.902 250.773 381.755 247.2 379.462 244.64C377.169 242.08 373.355 240.8 368.022 240.8C366.049 240.8 364.075 240.987 362.102 241.36C361.782 244.4 361.622 247.733 361.622 251.36ZM464.64 288.96V242.96L440.48 304.4H438.4L415.12 244.96V288.96C415.12 293.173 415.227 296.293 415.44 298.32L422.88 299.28C423.2 300.24 423.2 301.2 422.88 302.16C418.293 302.053 415.04 302 413.12 302C409.92 302 406.693 302.08 403.44 302.24C403.227 301.067 403.227 300.08 403.44 299.28L410.72 298.48V251.36C410.72 247.147 410.613 244.027 410.4 242L403.76 241.04C403.44 240.133 403.44 239.227 403.76 238.32H421.36L441.44 290.96L462 238.32C463.227 238.373 465.093 238.4 467.6 238.4C468.133 238.4 472.32 238.32 480.16 238.16C480.48 239.12 480.48 240.08 480.16 241.04L473.52 242C473.307 244.027 473.2 247.147 473.2 251.36V298.48L479.68 299.28C479.893 300.08 479.893 301.067 479.68 302.24C476.32 302.08 472.667 302 468.72 302C465.84 302 462.16 302.053 457.68 302.16C457.36 300.827 457.36 299.867 457.68 299.28L464.32 298.32C464.533 296.293 464.64 293.173 464.64 288.96Z" fill="#BFD1EC"/>
</svg>
