<svg width="109" height="23" viewBox="0 0 109 23" fill="none" xmlns="http://www.w3.org/2000/svg">
<path d="M3.41 11.47C3.41 12.73 3.57 13.88 3.89 14.92C4.23 15.94 4.69 16.82 5.27 17.56C5.87 18.3 6.58 18.87 7.4 19.27C8.22 19.67 9.12 19.87 10.1 19.87C11.08 19.87 11.93 19.76 12.65 19.54C13.37 19.3 14.07 18.98 14.75 18.58L15.62 20.95C14.88 21.35 14.03 21.69 13.07 21.97C12.13 22.23 11.03 22.36 9.77 22.36C8.39 22.36 7.13 22.11 5.99 21.61C4.87 21.11 3.9 20.4 3.08 19.48C2.26 18.54 1.62 17.41 1.16 16.09C0.72 14.75 0.5 13.25 0.5 11.59C0.5 9.99 0.72 8.52 1.16 7.18C1.62 5.84 2.27 4.69 3.11 3.73C3.95 2.75 4.96 1.99 6.14 1.45C7.34 0.909999 8.67 0.64 10.13 0.64C11.15 0.64 12.06 0.74 12.86 0.939999C13.68 1.12 14.45 1.38 15.17 1.72L14.3 4.12C13.68 3.82 13.04 3.58 12.38 3.4C11.74 3.22 10.98 3.13 10.1 3.13C9.14 3.13 8.25 3.32 7.43 3.7C6.61 4.06 5.9 4.6 5.3 5.32C4.7 6.04 4.23 6.92 3.89 7.96C3.57 8.98 3.41 10.15 3.41 11.47ZM35.7125 12.43H25.3625V22H22.5125V0.999999H25.3625V9.97H35.7125V0.999999H38.5625V22H35.7125V12.43ZM46.9578 22V0.999999H49.8078V22H46.9578ZM74.9895 4.63L69.3795 17.26H66.5595L60.9195 4.63V22H58.2195V0.999999H62.2095L68.0295 14.29L73.7595 0.999999H77.8395V22H74.9895V4.63ZM86.2391 0.999999H98.8391V3.46H89.0891V9.85H97.4891V12.25H89.0891V19.54H98.8391V22H86.2391V0.999999ZM105.88 22V0.999999H108.73V22H105.88Z" fill="white"/>
</svg>
